<svg width="133" height="16" viewBox="0 0 133 16" fill="none" xmlns="http://www.w3.org/2000/svg">
  <path
    fill-rule="evenodd"
    clip-rule="evenodd"
    d="M25.2583 15.4366L27.0798 4.61972C27.7747 0.544605 28.4507 3.8147e-06 31.4179 3.8147e-06H32.3005C35.324 3.8147e-06 36.0376 0.544605 36.7136 4.61972L38.5165 15.4366C38.5916 15.8685 38.3662 15.8873 38.0658 15.8873H36.7888C36.5822 15.8873 36.432 15.8685 36.2254 15.7559L29.1831 12.2629C28.939 12.1315 28.8451 12.0376 28.9202 11.6995L29.1456 10.4789C29.2207 10.1408 29.446 10.0282 29.7277 10.1784L35.5869 13.0892L34.1972 4.65728C33.7653 2.10329 33.2207 2.08451 32.1503 2.08451H31.6244C30.5916 2.08451 30.0658 2.10329 29.6338 4.65728L27.831 15.4178C27.7559 15.8685 27.6808 15.8685 27.3803 15.8685H25.709C25.4085 15.8685 25.1831 15.8685 25.2583 15.4178V15.4366ZM0 4.7324V15.4178C0 15.7183 0.150235 15.8685 0.450704 15.8685H2.12207C2.42254 15.8685 2.57277 15.7183 2.57277 15.4178V9.50235H9.7277C10.0282 9.50235 10.1784 9.35212 10.1784 9.05165V7.69953C10.1784 7.39907 10.0282 7.24883 9.7277 7.24883H2.57277V4.76996C2.57277 3.0047 3.51174 2.3662 5.50235 2.3662H10.1784C10.4789 2.3662 10.6291 2.21597 10.6291 1.9155V0.563385C10.6291 0.262916 10.4789 0.112681 10.1784 0.112681H5.31455C1.37089 0.112681 0 1.84038 0 4.7324ZM13.4836 0.563385V11.3803L13.5023 11.3615C13.5023 14.2535 14.8732 15.9812 18.8169 15.9812H23.4554C23.7559 15.9812 23.9061 15.831 23.9061 15.5305V14.1784C23.9061 13.8779 23.7559 13.7277 23.4554 13.7277H18.9859C16.9953 13.7277 16.0563 13.1268 16.0563 11.3239V0.563385C16.0563 0.262916 15.9061 0.112681 15.6056 0.112681H13.9343C13.6338 0.112681 13.4836 0.262916 13.4836 0.563385ZM40.8075 11.4366C40.507 11.4366 40.3568 11.5869 40.3568 11.8873L40.3755 11.9061C40.3755 14.5728 42.0469 16 45.4835 16H47.6432C51.0798 16 52.7511 14.5728 52.7511 11.4554C52.7511 8.07512 51.1173 7.60564 47.1737 7.07982L45.953 6.92958C43.568 6.61033 43.1549 6.06573 43.1549 4.60094C43.1549 2.68545 44.169 2.10329 45.8967 2.10329H47.1361C48.845 2.10329 49.8216 2.66667 49.8216 4.15024C49.8216 4.45071 50.0469 4.60094 50.3474 4.60094H51.9436C52.2441 4.60094 52.3943 4.45071 52.3943 4.15024C52.3943 1.46479 50.6666 3.8147e-06 47.3802 3.8147e-06H45.7277C42.3849 3.8147e-06 40.6009 1.78404 40.6009 4.60094C40.6009 6.98592 41.446 8.67606 45.953 9.25822L47.1737 9.40845C49.7277 9.7277 50.1971 9.93428 50.1971 11.4366C50.1971 13.3709 49.1079 13.8967 47.3051 13.8967H45.8403C44.0187 13.8967 42.9295 13.4272 42.9295 11.8873C42.9295 11.5869 42.7042 11.4366 42.4037 11.4366H40.8075ZM65.5963 15.4366V9.07043H58.3474V15.4366C58.3474 15.7371 58.1972 15.8873 57.8967 15.8873H56.2254C55.9249 15.8873 55.7747 15.7371 55.7747 15.4366V0.563385C55.7747 0.262916 55.9249 0.112681 56.2254 0.112681H57.8967C58.1972 0.112681 58.3474 0.262916 58.3474 0.563385V6.79813H65.5963V0.563385C65.5963 0.262916 65.7465 0.112681 66.047 0.112681H67.7183C68.0188 0.112681 68.169 0.262916 68.169 0.563385V15.4366C68.169 15.7371 68.0188 15.8873 67.7183 15.8873H66.047C65.7465 15.8873 65.5963 15.7371 65.5963 15.4366ZM71.9436 0.563385V11.3615C71.9436 14.2535 73.3145 15.9812 77.2582 15.9812H81.8967C82.1972 15.9812 82.3474 15.831 82.3474 15.5305V14.1784C82.3474 13.8779 82.1972 13.7277 81.8967 13.7277H77.446C75.4554 13.7277 74.5164 13.1268 74.5164 11.3239V0.563385C74.5164 0.262916 74.3662 0.112681 74.0657 0.112681H72.3943C72.0939 0.112681 71.9436 0.262916 71.9436 0.563385ZM84.9389 15.4366V0.563385C84.9389 0.262916 85.0892 0.112681 85.3896 0.112681H87.061C87.3615 0.112681 87.5117 0.262916 87.5117 0.563385V15.4366C87.5117 15.7371 87.3615 15.8873 87.061 15.8873H85.3896C85.0892 15.8873 84.9389 15.7371 84.9389 15.4366ZM90.7418 4.61972V11.3803H90.723C90.723 14.2723 92.0939 16 95.8122 16H98.0469C101.333 16 102.911 14.4601 102.911 11.831V8.20658C102.911 7.90611 102.742 7.75587 102.479 7.75587H97.1267C96.9014 7.75587 96.7887 7.86855 96.7887 8.0939V9.67136C96.7887 9.89672 96.9014 10.0094 97.1267 10.0094H100.357V11.831C100.357 13.2019 99.2676 13.6714 97.8779 13.6714H96C94.2347 13.6714 93.2958 13.0516 93.2958 11.3239V4.65728C93.2958 2.94836 94.2347 2.30986 96 2.30986H97.8779C99.2676 2.30986 100.357 2.89202 100.357 4.43193C100.357 4.7324 100.563 4.88263 100.826 4.88263H102.479C102.779 4.88263 102.93 4.7324 102.93 4.43193C102.93 1.65259 101.352 3.8147e-06 98.0657 3.8147e-06H95.831C92.1126 3.8147e-06 90.7418 1.7277 90.7418 4.61972ZM115.775 15.4366V9.07043H108.526V15.4366C108.526 15.7371 108.376 15.8873 108.075 15.8873H106.404C106.103 15.8873 105.953 15.7371 105.953 15.4366V0.563385C105.953 0.262916 106.103 0.112681 106.404 0.112681H108.075C108.376 0.112681 108.526 0.262916 108.526 0.563385V6.79813H115.775V0.563385C115.775 0.262916 115.925 0.112681 116.225 0.112681H117.897C118.197 0.112681 118.347 0.262916 118.347 0.563385V15.4366C118.347 15.7371 118.197 15.8873 117.897 15.8873H116.225C115.925 15.8873 115.775 15.7371 115.775 15.4366ZM125.671 2.3662V15.4366C125.671 15.7371 125.822 15.8873 126.122 15.8873H127.793C128.094 15.8873 128.244 15.7371 128.244 15.4366V2.3662H132.545C132.845 2.3662 132.995 2.21597 132.995 1.9155V0.563385C132.995 0.262916 132.845 0.112681 132.545 0.112681H121.371C121.07 0.112681 120.92 0.262916 120.92 0.563385V1.9155C120.92 2.21597 121.07 2.3662 121.371 2.3662H125.671Z"
    fill="black"
  />
</svg>